<svg width="409" height="28" viewBox="0 0 409 28" fill="none" xmlns="http://www.w3.org/2000/svg">
<path d="M2.94269 14.2714C42.7761 10.8108 84.5635 9.8871 124.785 8.59131C178.104 6.87361 231.349 5.03199 284.649 3.01784C299.738 2.44763 282.009 3.09239 278.266 3.24302C230.352 5.17102 182.502 9.29792 135.398 13.5824C111.235 15.7802 87.1134 18.132 63.238 20.8103C53.9965 21.847 44.451 22.9025 35.5529 24.3693C33.313 24.7385 31.8872 25.0603 35.249 25.0628C50.8352 25.0742 67.1416 24.0257 82.679 23.3316C143.138 20.6308 203.592 17.9871 264.062 15.3775C311.938 13.3113 359.167 10.684 406.572 6.92148" stroke="white" stroke-width="4" stroke-linecap="round"/>
</svg>
