<svg width="149" height="184" viewBox="0 0 149 184" fill="none" xmlns="http://www.w3.org/2000/svg">
<path d="M2.5 141.858C6.74398 146.101 10.6578 150.654 14.6242 155.15C19.1579 160.289 23.6698 166.033 29.0918 170.275C32.4615 172.912 36.5957 174.168 40.0954 176.59C41.7756 177.753 43.879 178.46 45.8009 179.009C46.4221 179.187 46.9175 180.487 47.6603 180.817C49.6054 181.681 52.5317 179.252 54.0535 178.296C56.2188 176.937 59.3127 175.542 60.9307 173.484C61.1855 173.16 62.5412 172.109 62.1024 172.109M58.9959 172.789C50.9231 163.508 40.9159 156.7 31.4518 148.94C27.5152 145.712 23.7612 142.24 20.2811 138.522C19.5687 137.761 18.7569 136.988 18.5 135.96M19.0039 123.983C31.7023 135.831 46.7361 144.87 56.9559 159.173C58.9448 161.957 61.3568 166.36 64.8519 167.525M2.95703 140.483C7.09566 137.3 18.5453 133.433 18.5453 126.733M26.3398 129.941C29.4212 129.598 33.26 124.15 35.484 122.149C37.8227 120.045 39.5611 117.172 42.03 115.274C44.5739 113.317 47.146 111.318 49.7223 109.315C50.7092 108.548 53.7962 106.399 54.9948 106.132C56.7258 105.748 58.2977 105.125 60.2674 104.834C65.1072 104.117 70.5087 104.732 75.3972 104.732H97.608C100.893 104.732 103.58 107.696 104.511 110.487C105.583 113.702 104.968 121.012 101.887 123.066C94.2852 128.132 84.5181 126.732 75.8557 126.732M93.5 127.963C96.8513 127.359 101.249 124.024 103.595 121.373C105.937 118.728 108.801 116.137 110.536 112.966L110.537 112.963C112.224 109.879 114.789 105.19 118.131 103.877C120.159 103.08 122.102 102.072 124.206 101.504C127.677 100.567 131.673 101.151 135.236 101.151C138.575 101.151 140.159 101.726 143.135 103.423C144.579 104.246 145.341 106.26 146.5 107.513M59.3516 162.025C62.532 158.846 65.298 155.332 69.0815 152.859C72.3593 150.716 75.7471 150.567 79.5247 150.567C85.0187 150.567 90.4537 150.109 95.9281 150.109C100.572 150.109 104.622 149.939 108.867 147.817C112.319 146.092 115.479 142.98 117.884 139.974C119.691 137.716 121.316 135.418 123.08 133.15C124.461 131.375 126.336 129.867 127.563 128.006C130.53 123.507 134.799 119.038 138.669 115.274C141.017 112.991 145.013 110.381 146.463 107.483M128.5 7.05232C125.611 4.03911 123.646 3.36079 119.476 3.1597C111.852 2.79198 104.172 2.89399 96.8228 5.27847C90.7044 7.26375 86.1646 9.6346 82.5787 15.4781C79.0552 21.2202 76.2036 28.4165 74.5 34.9905C74.9262 37.5914 74.7195 40.234 74.8333 42.8604C74.9314 45.1224 75.505 47.224 75.8636 49.4396C76.3898 52.6902 76.6231 56.0609 76.6818 59.3557C76.8506 68.8254 76.4831 78.3943 76.197 87.9077C76.1239 90.3366 75.6473 93.4979 76.4091 95.872C76.5625 96.3503 76.6818 96.4905 76.6818 97.0368C76.6818 97.999 77.1061 99.0612 77.1061 99.9329C77.1061 100.751 76.7316 104.571 77.5 104.97M76.7734 37.3559C77.6408 39.2634 81.453 40.4903 83.2431 41.0481C88.699 42.7481 94.3447 43.5902 100.054 43.2125C108.594 42.6475 114.607 37.5587 120.176 31.4483C126.37 24.6527 128.582 15.1569 128.582 6.1885M74.5 64.9815C70.7821 59.5488 62.8078 57.3966 56.6102 55.5005C49.799 53.4167 42.9339 50.9857 35.6766 50.9857C29.1543 50.9857 13.9328 51.9397 12.5 60.0153M72.1041 67.3851C65.9504 69.5146 60.5689 70.9686 54.5 67.9351M74.4844 35.9371C79.453 32.8327 85.218 31.021 90.2456 27.9375C92.9962 26.2505 95.5708 24.3334 98.0904 22.3234C99.4217 21.2614 100.43 20.5576 102.006 19.9949M11.5 60.9827C20.0077 69.2167 29.2763 76.9453 41.5606 79.8114C47.7947 81.2659 55.6828 81.3009 62.032 80.2387C64.4832 79.8287 66.2384 78.429 68.4428 77.5238C70.8572 76.5323 75.5 71.8285 75.5 69.1276" stroke="#3EC320" stroke-width="5" stroke-linecap="round"/>
</svg>
