<svg width="273" height="179" viewBox="0 0 273 179" fill="none" xmlns="http://www.w3.org/2000/svg">
<path d="M3 162.35H270L94.9753 170.5L184.5 176M25 153.5C31.5255 138.475 28.6134 110.763 28.6134 91.5165L43.7077 90M51.7368 125.616C50.9352 121.265 49.5169 113.593 48.8151 109.676C44.4068 85.0694 22 31.0076 22 31.0076C22 31.0076 60.5 11 78.9467 3C81.72 12.7104 84.6414 20.7095 87.2533 30.4278M51.7368 125.616C46.4681 138.747 41.7562 151.178 35.0846 162.35M51.7368 125.616C57.565 111.09 61.3388 98.4539 68.5857 86.3185C77.8295 86.3185 86.8898 88.1596 95.9455 91.1925C105.223 94.2996 114.831 95.1805 124.232 96.7163C135.237 98.5142 148.979 106.572 156.896 119.461C165.946 134.195 177.449 155.53 189.667 162.35M172.203 124.658C179.34 121.199 190.346 111.095 191.996 103.501C193.392 97.0707 196.414 91.9296 198.507 86.1716M198.507 86.1716C200.258 81.3548 202.055 76.3806 203.552 71.3692C204.493 68.2168 205.352 63.9122 207.325 67.47C210.716 73.5847 215.006 77.7859 218.213 84.6914C218.8 85.9551 219.156 87.5856 220.11 87.6157C223.43 87.7206 226.906 88.0788 230.2 87.2908C231.724 86.9262 238.135 85.234 239.255 87.1103C239.768 87.9694 238.953 98.4984 238.953 99.9631C238.953 106.323 239.262 112.884 238.587 119.098C238.169 122.943 246.882 124.658 248.677 124.658C252.102 124.658 251.962 132.43 252.924 136.861C254.794 145.472 257.072 153.676 258.799 162.35M198.507 86.1716C192.887 81.4664 185.437 73.9706 178.801 73.9706M94.9753 58.6989C91.9949 46.2221 90.5205 42.5839 87.2533 30.4278M94.9753 58.6989C104.173 58.6989 105.468 63.2896 106.618 49.8174C107.177 43.2635 108.366 38.7924 111 33.5C111.674 32.1457 123.046 27.9731 124.469 31.0076C132.606 43.8992 139.209 10.9104 143.615 18.0103C146.28 22.3052 149.652 25.8183 151.765 31.0076C152.489 32.7877 156.016 36.1059 156.896 37.5784C158.869 40.8831 165.7 37.5784 168.409 37.5784C170.786 37.5784 171.287 42.9133 172.203 46.0627C174.316 53.3223 176.261 60.6388 177.637 68.3746C177.975 70.2767 178.732 72.0242 178.801 73.9706M94.9753 58.6989C97.6705 69.9821 100.877 85.0133 106.143 93.8318M178.801 73.9706C156.68 84.6914 149 96.7163 145.426 106.625M87.2533 30.4278C73.2718 42.1341 50.2343 53.1769 34.9544 61.566M67.8096 140.256C68.8201 138.364 80.5557 113.091 81.0906 113.611C87.0861 119.441 94.7667 123.887 101.573 125.959M131.843 133.108C134.047 131.493 136.351 130.254 138.505 128.45C139.161 127.901 139.32 127.966 139.82 128.956C141.631 132.539 143.175 136.493 145.426 139.606M118.648 73.9709C120.65 72.5343 122.906 68.7909 124.469 66.1726M143.874 62.2749C146.347 60.1799 151.106 53.213 153.877 56.4261C154.884 57.5925 155.659 59.1851 156.68 60.3253M205.5 119.099C208.376 117.738 217.595 114.145 219.549 119.099C220.94 122.625 221.682 126.442 223.042 129.858" stroke="#3EC320" stroke-width="5" stroke-linecap="round" stroke-linejoin="round"/>
</svg>
