<svg width="303" height="188" viewBox="0 0 303 188" fill="none" xmlns="http://www.w3.org/2000/svg">
<path d="M250.55 10.7998C250.44 8.05037 251.26 5.82623 251.105 3M229.335 10.059C227.154 8.16881 226.15 5.93763 223.873 4.02697M227.09 163.489C226.366 138.701 213.532 111.155 198.036 96.6015C176.682 76.5455 147.232 71.4461 122.368 83.749C103.134 93.2657 87.5781 103.737 76.4666 126.379C69.0859 141.419 65.1877 153.936 65.1877 171.635M75.9089 127.141C75.9089 127.141 65.9901 120.915 52.7489 127.143C42.5064 131.961 34.2225 137.262 28.3052 148.725C24.3747 156.339 22.2988 162.675 22.2988 171.635M213.151 107.927C213.151 107.927 227.633 99.013 246.965 107.931C261.919 114.829 274.013 122.419 282.653 138.832C288.391 149.733 291.422 158.806 291.422 171.635M3 171.635C101.52 171.342 202.726 170.561 300 170.561M65.2343 181.511C122.468 179.655 181.248 177.267 237.765 175.723M65.1889 184.524C103.995 184.746 143.866 184.492 182.177 185M240.888 19.1116C237.343 19.5079 233.563 20.09 230.795 22.7828C228.373 25.1395 226.274 28.7601 227.404 32.483C229.135 38.186 238.316 40.5009 243.238 41.6013C246.948 42.4308 253.174 44.2222 256.028 40.3328C257.398 38.4657 258.087 35.8873 258.178 33.4978C258.307 30.0915 256.348 28.4048 253.678 27.1106C250.141 25.3953 244.781 25.0192 240.888 27.1106M222.136 42.7419C220.383 45.0364 218.22 46.174 216.453 48.5657M218.991 24.9681C216.114 24.7686 213.974 23.5882 211.008 23.43M240.983 52.4085C241.004 55.2977 239.993 57.5255 240.062 60.5004M264.617 49.2152C266.861 51.0299 267.94 53.2255 270.281 55.0574M266.762 25.8555C269.524 25.0251 271.942 25.3732 274.773 24.4727M146.205 170.344C146.259 164.942 146.435 159.544 146.435 154.138C146.435 152.432 145.974 150.821 145.974 149.112C145.974 148.93 145.858 148.3 146.128 148.24C146.769 148.097 147.727 148.28 148.329 148.317C150.922 148.473 153.518 148.589 156.111 148.753C171.502 149.723 186.464 147.103 201.894 147.467C202.728 147.486 202.301 149.067 202.304 149.698C202.325 153.866 202.808 162.833 203.621 166.934L203.623 166.942C203.686 167.262 204.77 172.74 205.413 170.806M171.428 147.649C171.447 145.454 171.511 143.26 171.511 141.063C171.511 140.37 171.345 139.715 171.345 139.02C171.345 138.946 171.303 138.69 171.4 138.666C171.632 138.608 171.977 138.682 172.194 138.697C173.129 138.761 174.065 138.808 175 138.874C180.551 139.269 185.946 138.204 191.511 138.352C191.811 138.36 191.657 139.002 191.659 139.258C191.666 140.952 191.84 144.597 192.134 146.263L192.134 146.267C192.157 146.397 192.548 148.623 192.78 147.837" stroke="#3EC320" stroke-width="5" stroke-linecap="round"/>
</svg>
