<svg width="225" height="209" viewBox="0 0 225 209" fill="none" xmlns="http://www.w3.org/2000/svg">
<path d="M174.873 10.3153C174.928 11.6949 176.091 12.7692 177.47 12.7147C178.85 12.6602 179.924 11.4976 179.87 10.118L174.873 10.3153ZM180.375 2.8649C180.3 1.4862 179.122 0.429037 177.744 0.503653C176.365 0.578269 175.308 1.75641 175.382 3.1351L180.375 2.8649ZM156.353 11.4097C157.39 12.3208 158.97 12.2183 159.881 11.1809C160.792 10.1434 160.689 8.56384 159.652 7.65277L156.353 11.4097ZM154.635 2.0456C153.583 1.15122 152.005 1.27889 151.111 2.33076C150.216 3.38264 150.344 4.9604 151.396 5.85478L154.635 2.0456ZM168.832 20.3911C170.204 20.2357 171.19 18.9976 171.035 17.6256C170.879 16.2537 169.641 15.2675 168.269 15.4229L168.832 20.3911ZM159.335 21.3037L157.58 19.5235V19.5235L159.335 21.3037ZM156.239 30.2788L158.634 29.5615L156.239 30.2788ZM170.696 38.7154L170.143 41.1536L170.696 38.7154ZM182.373 37.5417L184.398 39.0079L182.373 37.5417ZM184.336 31.2177L186.834 31.3116V31.3116L184.336 31.2177ZM180.228 25.308L181.33 23.0643L180.228 25.308ZM167.355 23.1124C166.142 23.7726 165.695 25.2908 166.355 26.5035C167.015 27.7161 168.533 28.1639 169.746 27.5037L167.355 23.1124ZM153.426 41.2755C154.257 40.1729 154.037 38.6054 152.934 37.7743C151.832 36.9432 150.264 37.1633 149.433 38.2659L153.426 41.2755ZM144.221 43.6861C143.407 44.8017 143.652 46.3656 144.768 47.1791C145.883 47.9925 147.447 47.7476 148.261 46.632L144.221 43.6861ZM148.383 25.8196C149.76 25.9164 150.955 24.8783 151.052 23.501C151.149 22.1237 150.111 20.9287 148.733 20.8319L148.383 25.8196ZM141.404 19.4063C140.025 19.3318 138.847 20.389 138.773 21.7677C138.698 23.1464 139.756 24.3245 141.134 24.399L141.404 19.4063ZM171.136 48.6962C171.126 47.3155 169.999 46.2045 168.618 46.2147C167.237 46.2248 166.126 47.3523 166.136 48.733L171.136 48.6962ZM165.297 56.2592C165.329 57.6395 166.474 58.7327 167.854 58.7009C169.234 58.669 170.328 57.5242 170.296 56.1439L165.297 56.2592ZM191.799 43.8263C190.732 42.9512 189.156 43.1075 188.281 44.1755C187.406 45.2434 187.562 46.8186 188.63 47.6937L191.799 43.8263ZM193.833 53.1242C194.915 53.9822 196.487 53.8007 197.345 52.7189C198.203 51.6371 198.022 50.0646 196.94 49.2067L193.833 53.1242ZM191.445 21.7552C190.124 22.1575 189.379 23.5544 189.781 24.8752C190.184 26.196 191.581 26.9406 192.901 26.5382L191.445 21.7552ZM200.255 25.2467C201.569 24.8232 202.291 23.4145 201.867 22.1003C201.444 20.7862 200.035 20.0643 198.721 20.4879L200.255 25.2467ZM22.818 86.2648L22.6707 83.7691H22.6707L22.818 86.2648ZM70.044 35.1694V32.6694C69.9919 32.6694 69.9397 32.671 69.8877 32.6743L70.044 35.1694ZM111.08 64.8127L108.842 65.9279C109.173 66.5925 109.783 67.0754 110.505 67.2459C111.228 67.4164 111.989 67.2569 112.583 66.8104L111.08 64.8127ZM132.397 67.0074C133.609 67.6686 135.128 67.222 135.789 66.0099C136.45 64.7978 136.004 63.2792 134.792 62.618L132.397 67.0074ZM39.7045 144.072C41.0853 144.072 42.2045 142.953 42.2045 141.572C42.2045 140.192 41.0853 139.072 39.7045 139.072V144.072ZM61.4393 139.484L61.187 136.996H61.187L61.4393 139.484ZM48.6092 160.166L51.0998 160.382L51.1247 160.096L51.0841 159.812L48.6092 160.166ZM36.8205 170.728C36.3841 172.038 37.0923 173.453 38.4022 173.89C39.7122 174.326 41.1278 173.618 41.5642 172.308L36.8205 170.728ZM76.289 132.954L78.538 134.046L76.289 132.954ZM81.5491 116.925C82.7839 116.307 83.2841 114.805 82.6663 113.57C82.0485 112.335 80.5467 111.835 79.3119 112.453L81.5491 116.925ZM119.469 157.011L117.002 156.61L119.469 157.011ZM102.812 139.31L101.961 141.661L102.23 141.758L102.514 141.792L102.812 139.31ZM95.6593 125.218C94.506 124.459 92.9557 124.778 92.1966 125.932C91.4375 127.085 91.757 128.635 92.9103 129.394L95.6593 125.218ZM121.93 173.006L120.296 174.898L121.93 173.006ZM136.054 182.213C136.332 183.566 137.653 184.437 139.006 184.16C140.358 183.882 141.23 182.56 140.952 181.208L136.054 182.213ZM120.113 129.555L119.624 132.007L120.113 129.555ZM218.017 126.753L219.549 128.729L218.017 126.753ZM208.204 131.007L208.108 128.508L208.204 131.007ZM119.75 100.29C121.04 99.7975 121.686 98.3524 121.193 97.0626C120.701 95.7729 119.256 95.1267 117.966 95.6195L119.75 100.29ZM171.512 69.559L169.299 70.7219L171.512 69.559ZM176.23 83.8201H173.73C173.73 84.6765 174.169 85.4734 174.892 85.9318C175.615 86.3902 176.523 86.4464 177.298 86.0807L176.23 83.8201ZM137.731 62.4535L138.829 64.6997L137.731 62.4535ZM116.373 97.5074C116.526 98.8796 117.763 99.868 119.135 99.715C120.507 99.5621 121.496 98.3257 121.343 96.9535L116.373 97.5074ZM204.992 97.2304L202.506 96.9641C202.423 97.7395 202.706 98.5093 203.272 99.0456C203.839 99.5818 204.623 99.8232 205.393 99.6981L204.992 97.2304ZM11.4902 190.2C10.1095 190.2 8.99021 191.319 8.99021 192.7C8.99021 194.08 10.1095 195.2 11.4902 195.2V190.2ZM222 192.7L222.183 195.193C223.525 195.094 224.548 193.952 224.498 192.608C224.449 191.264 223.345 190.2 222 190.2V192.7ZM115.192 200.559L115.009 198.066C113.71 198.161 112.703 199.237 112.692 200.539C112.682 201.841 113.672 202.933 114.969 203.049L115.192 200.559ZM175.613 208.49C176.988 208.613 178.203 207.599 178.326 206.223C178.45 204.848 177.435 203.633 176.06 203.51L175.613 208.49ZM36.8351 166.512C36.7418 165.135 35.5495 164.094 34.1719 164.187C32.7943 164.28 31.7532 165.473 31.8465 166.85L36.8351 166.512ZM36.9132 176.376L39.4066 176.195L36.9132 176.376ZM37.9723 177.254L39.3226 179.358L37.9723 177.254ZM48.3779 174.291C49.2699 173.237 49.1387 171.659 48.0848 170.767C47.0309 169.875 45.4534 170.006 44.5614 171.06L48.3779 174.291ZM100.768 128.238C101.809 129.145 103.388 129.036 104.295 127.994C105.202 126.953 105.093 125.374 104.051 124.467L100.768 128.238ZM93.714 121.311L92.0815 123.204L93.714 121.311ZM92.3425 121.436L89.8995 120.905L92.3425 121.436ZM87.0904 130.876C87.2073 132.251 88.4174 133.272 89.7931 133.155C91.1689 133.038 92.1894 131.828 92.0724 130.452L87.0904 130.876ZM179.87 10.118C179.829 9.09992 179.956 8.16503 180.118 6.97057C180.274 5.81959 180.46 4.43639 180.375 2.8649L175.382 3.1351C175.439 4.17855 175.321 5.13174 175.163 6.29939C175.011 7.42356 174.813 8.78953 174.873 10.3153L179.87 10.118ZM159.652 7.65277C158.867 6.96355 158.282 6.20554 157.52 5.21988C156.787 4.27018 155.896 3.11845 154.635 2.0456L151.396 5.85478C152.213 6.54974 152.82 7.3141 153.563 8.27576C154.278 9.20146 155.146 10.3501 156.353 11.4097L159.652 7.65277ZM168.269 15.4229C165.086 15.7835 160.791 16.3574 157.58 19.5235L161.091 23.084C162.933 21.2672 165.542 20.7638 168.832 20.3911L168.269 15.4229ZM157.58 19.5235C155.126 21.9433 152.413 26.2181 153.844 30.9961L158.634 29.5615C158.002 27.4504 159.122 25.0253 161.091 23.084L157.58 19.5235ZM170.143 41.1536C171.689 41.5037 174.276 42.1957 176.758 42.2648C179.268 42.3348 182.382 41.792 184.398 39.0079L180.348 36.0755C179.758 36.89 178.727 37.3178 176.897 37.2668C175.039 37.215 173.09 36.6945 171.248 36.2772L170.143 41.1536ZM184.398 39.0079C186.021 36.7672 186.738 33.8564 186.834 31.3116L181.837 31.1239C181.767 33.0006 181.228 34.8612 180.348 36.0755L184.398 39.0079ZM186.834 31.3116C186.914 29.1918 186.337 27.4191 185.202 25.981C184.126 24.6178 182.681 23.728 181.33 23.0643L179.125 27.5518C180.212 28.0855 180.88 28.5748 181.278 29.0791C181.617 29.5086 181.876 30.0921 181.837 31.1239L186.834 31.3116ZM181.33 23.0643C177.519 21.1915 171.754 20.7171 167.355 23.1124L169.746 27.5037C172.455 26.0289 176.477 26.2504 179.125 27.5518L181.33 23.0643ZM153.844 30.9961C154.956 34.7084 158.312 36.9673 161.324 38.3625C164.439 39.8052 167.884 40.6417 170.143 41.1536L171.248 36.2772C169.013 35.7709 166.021 35.0274 163.426 33.8255C160.728 32.5761 159.103 31.1259 158.634 29.5615L153.844 30.9961ZM149.433 38.2659C148.802 39.1036 148.091 39.7424 147.169 40.5721C146.278 41.373 145.199 42.3446 144.221 43.6861L148.261 46.632C148.896 45.7606 149.612 45.0995 150.512 44.2902C151.38 43.5097 152.457 42.5608 153.426 41.2755L149.433 38.2659ZM148.733 20.8319C147.704 20.7595 146.793 20.512 145.601 20.1875C144.452 19.875 143.054 19.4954 141.404 19.4063L141.134 24.399C142.193 24.4562 143.125 24.6958 144.288 25.0121C145.406 25.3165 146.785 25.7073 148.383 25.8196L148.733 20.8319ZM166.136 48.733C166.144 49.793 165.969 50.7447 165.742 51.9743C165.522 53.1613 165.259 54.5957 165.297 56.2592L170.296 56.1439C170.271 55.0548 170.437 54.0824 170.658 52.8823C170.872 51.7249 171.148 50.3094 171.136 48.6962L166.136 48.733ZM188.63 47.6937C189.438 48.3551 190.048 49.0922 190.842 50.051C191.607 50.9748 192.536 52.0953 193.833 53.1242L196.94 49.2067C196.1 48.5406 195.468 47.798 194.693 46.8625C193.948 45.9621 193.041 44.8439 191.799 43.8263L188.63 47.6937ZM192.901 26.5382C193.89 26.2371 194.829 26.1423 196.057 26.0188C197.241 25.8998 198.681 25.754 200.255 25.2467L198.721 20.4879C197.71 20.8138 196.754 20.9235 195.557 21.0439C194.404 21.1598 192.978 21.2882 191.445 21.7552L192.901 26.5382ZM5.5 114.674C5.5 109.484 6.81676 103.032 9.74038 97.8607C12.6372 92.7366 16.938 89.1161 22.9652 88.7604L22.6707 83.7691C14.4448 84.2545 8.83667 89.2993 5.38777 95.4C1.96568 101.453 0.5 108.786 0.5 114.674H5.5ZM70.044 37.6694C90.5083 37.6694 102.837 53.8794 108.842 65.9279L113.317 63.6975C107.105 51.2351 93.505 32.6694 70.044 32.6694V37.6694ZM112.583 66.8104C114.241 65.5624 117.62 64.711 121.697 64.7144C125.693 64.7177 129.716 65.5448 132.397 67.0074L134.792 62.618C131.148 60.6304 126.225 59.7182 121.701 59.7144C117.258 59.7107 112.541 60.5843 109.577 62.815L112.583 66.8104ZM39.7045 139.072C31.5113 139.072 22.8226 136.917 16.2637 132.734C9.75945 128.586 5.5 122.573 5.5 114.674H0.5C0.5 124.692 6.01557 132.128 13.575 136.95C21.0797 141.736 30.7433 144.072 39.7045 144.072V139.072ZM22.9652 88.7604C23.8629 88.7074 24.4646 88.2129 24.7738 87.8328C25.0513 87.4919 25.1731 87.16 25.2223 87.0107C25.3246 86.7003 25.3485 86.4278 25.3565 86.3322C25.3766 86.0911 25.3724 85.8355 25.3675 85.654C25.357 85.2664 25.3241 84.6911 25.2943 84.0773C25.232 82.7934 25.1631 80.99 25.2253 78.8219C25.35 74.4717 26.0013 68.718 28.2507 62.9051C30.4904 57.1172 34.3117 51.2714 40.8158 46.6507C47.3276 42.0245 56.6918 38.5106 70.2003 37.6645L69.8877 32.6743C55.6538 33.5658 45.3419 37.3019 37.92 42.5746C30.4904 47.8529 26.1205 54.555 23.5876 61.1007C21.0644 67.6214 20.3618 73.9871 20.2273 78.6786C20.1599 81.0314 20.2352 82.9794 20.3002 84.3197C20.3341 85.0179 20.3608 85.4728 20.3693 85.7889C20.3739 85.9592 20.369 85.9738 20.3739 85.9157C20.3742 85.9116 20.3868 85.7088 20.4736 85.4456C20.515 85.3199 20.628 85.0059 20.8954 84.6772C21.1947 84.3093 21.7853 83.8213 22.6707 83.7691L22.9652 88.7604ZM61.187 136.996C57.3144 137.389 52.6573 138.382 49.4222 142.088C46.151 145.835 44.876 151.705 46.1343 160.519L51.0841 159.812C49.9144 151.619 51.3102 147.528 53.1889 145.376C55.1039 143.182 58.0757 142.338 61.6915 141.971L61.187 136.996ZM46.1186 159.949C46.0088 161.213 45.6434 161.915 45.2398 162.404C44.7807 162.961 44.1393 163.413 43.1442 164.012C41.2815 165.132 38.1693 166.678 36.8205 170.728L41.5642 172.308C42.2333 170.299 43.5303 169.614 45.7218 168.296C46.7538 167.675 48.0509 166.855 49.0982 165.584C50.2011 164.246 50.9103 162.563 51.0998 160.382L46.1186 159.949ZM74.0399 131.863C72.9128 134.185 71.5964 135.163 69.8179 135.755C67.7381 136.448 65.1491 136.594 61.187 136.996L61.6915 141.971C65.2177 141.613 68.6343 141.419 71.3976 140.499C74.4623 139.479 76.8265 137.572 78.538 134.046L74.0399 131.863ZM79.3119 112.453C76.8965 113.661 75.3833 115.341 74.6321 117.411C73.9278 119.351 73.9936 121.382 74.1565 123.101C74.3407 125.043 74.6039 126.383 74.6676 128.04C74.7253 129.54 74.5658 130.779 74.0399 131.863L78.538 134.046C79.5634 131.934 79.7379 129.771 79.6639 127.848C79.5959 126.08 79.2617 123.973 79.1342 122.629C78.9853 121.059 79.0251 119.962 79.3321 119.117C79.5921 118.4 80.1273 117.636 81.5491 116.925L79.3119 112.453ZM121.937 157.412C122.56 153.578 122.808 148.83 120.064 144.753C117.29 140.632 111.949 137.89 103.11 136.828L102.514 141.792C110.734 142.78 114.325 145.181 115.916 147.545C117.537 149.953 117.584 153.031 117.002 156.61L121.937 157.412ZM103.664 136.96C102.471 136.527 101.888 135.994 101.52 135.48C101.102 134.895 100.832 134.162 100.512 133.049C99.9114 130.964 99.2229 127.563 95.6593 125.218L92.9103 129.394C94.6761 130.557 95.0009 131.98 95.7069 134.432C96.0394 135.587 96.496 137.05 97.4533 138.389C98.4612 139.798 99.9036 140.915 101.961 141.661L103.664 136.96ZM123.565 171.114C121.614 169.429 121.012 167.91 120.9 166.047C120.77 163.866 121.298 161.335 121.937 157.412L117.002 156.61C116.434 160.099 115.736 163.443 115.909 166.345C116.101 169.566 117.333 172.338 120.296 174.898L123.565 171.114ZM140.952 181.208C140.41 178.565 139.177 176.672 137.372 175.414C135.68 174.235 133.702 173.774 132 173.488C130.076 173.164 128.713 173.072 127.096 172.706C125.631 172.374 124.475 171.9 123.565 171.114L120.296 174.898C122.071 176.431 124.115 177.157 125.992 177.582C127.717 177.973 129.838 178.194 131.171 178.418C132.726 178.68 133.775 179.002 134.513 179.516C135.138 179.951 135.736 180.663 136.054 182.213L140.952 181.208ZM146.314 128.957C137.707 128.957 128.817 128.742 120.602 127.104L119.624 132.007C128.366 133.75 137.688 133.957 146.314 133.957V128.957ZM216.485 124.778C215.575 125.483 214.024 126.425 212.342 127.202C210.605 128.004 209.064 128.472 208.108 128.508L208.3 133.505C210.27 133.429 212.545 132.615 214.438 131.741C216.386 130.842 218.279 129.714 219.549 128.729L216.485 124.778ZM120.602 127.104C116.146 126.215 113.145 124.373 111.277 122.202C109.411 120.034 108.546 117.391 108.598 114.642C108.703 109.106 112.572 103.033 119.75 100.29L117.966 95.6195C109.053 99.0247 103.745 106.797 103.599 114.547C103.525 118.441 104.765 122.301 107.487 125.464C110.207 128.624 114.276 130.941 119.624 132.007L120.602 127.104ZM208.108 128.508C203.909 128.669 200.22 128.957 196.107 128.957V133.957C200.336 133.957 204.351 133.656 208.3 133.505L208.108 128.508ZM169.299 70.7219C170.36 72.7414 171.488 75.2182 172.345 77.6365C173.22 80.1098 173.73 82.2976 173.73 83.8201H178.73C178.73 81.4295 177.988 78.5932 177.058 75.9674C176.108 73.2866 174.877 70.5895 173.725 68.3962L169.299 70.7219ZM138.829 64.6997C144.666 61.8474 151.25 61.2266 156.935 62.4407C162.65 63.6613 167.162 66.6558 169.299 70.7219L173.725 68.3962C170.705 62.6484 164.685 58.9831 157.979 57.5509C151.242 56.1122 143.513 56.8456 136.633 60.2074L138.829 64.6997ZM121.343 96.9535C119.837 83.4451 126.03 70.9535 138.829 64.6997L136.633 60.2074C121.821 67.4455 114.649 82.0319 116.373 97.5074L121.343 96.9535ZM205.393 99.6981C207.593 99.3405 209.882 100.093 212.082 101.859C214.291 103.632 216.245 106.311 217.594 109.354C218.944 112.398 219.612 115.632 219.43 118.437C219.25 121.226 218.259 123.403 216.485 124.778L219.549 128.729C222.758 126.241 224.175 122.544 224.42 118.759C224.663 114.991 223.771 110.95 222.165 107.328C220.559 103.705 218.161 100.326 215.211 97.9592C212.253 95.585 208.575 94.1155 204.591 94.7628L205.393 99.6981ZM177.298 86.0807C185.058 82.4162 191.904 81.9196 196.38 83.7885C198.566 84.7011 200.233 86.1858 201.295 88.253C202.37 90.3466 202.908 93.2069 202.506 96.9641L207.477 97.4968C207.957 93.0179 207.365 89.1283 205.743 85.9688C204.106 82.7828 201.508 80.511 198.307 79.1745C192.009 76.5452 183.591 77.5794 175.163 81.5594L177.298 86.0807ZM11.4902 195.2H222V190.2H11.4902V195.2ZM221.817 190.206L115.009 198.066L115.376 203.052L222.183 195.193L221.817 190.206ZM114.969 203.049L175.613 208.49L176.06 203.51L115.416 198.069L114.969 203.049ZM31.8465 166.85C31.9698 168.67 32.7033 170.739 33.2591 172.347C33.8913 174.175 34.3461 175.543 34.4198 176.557L39.4066 176.195C39.275 174.382 38.5393 172.317 37.9846 170.713C37.3534 168.887 36.9034 167.522 36.8351 166.512L31.8465 166.85ZM34.4198 176.557C34.4352 176.769 34.4563 177.127 34.4941 177.41C34.5164 177.577 34.6019 178.373 35.1571 179.056C35.5114 179.492 36.0197 179.844 36.6488 179.991C37.2196 180.124 37.7107 180.047 38.0191 179.968C38.5759 179.824 39.0506 179.532 39.3226 179.358L36.6219 175.15C36.3923 175.297 36.494 175.198 36.771 175.126C36.9395 175.083 37.314 175.012 37.787 175.122C38.3183 175.246 38.7476 175.546 39.0374 175.903C39.2877 176.211 39.3829 176.497 39.4138 176.599C39.4479 176.713 39.4542 176.779 39.4502 176.749C39.4386 176.662 39.4322 176.547 39.4066 176.195L34.4198 176.557ZM39.3226 179.358C40.3659 178.688 41.6485 178.251 43.426 177.508C44.9855 176.856 46.9851 175.936 48.3779 174.291L44.5614 171.06C44.0211 171.699 43.0597 172.242 41.4975 172.895C40.1534 173.457 38.1539 174.167 36.6219 175.15L39.3226 179.358ZM104.051 124.467C102.675 123.268 100.691 122.324 99.1571 121.578C97.4135 120.731 96.12 120.084 95.3466 119.417L92.0815 123.204C93.4585 124.391 95.4413 125.332 96.9721 126.076C98.7127 126.921 100.001 127.571 100.768 128.238L104.051 124.467ZM95.3466 119.417C95.1849 119.278 94.9168 119.04 94.6894 118.867C94.5551 118.764 93.9334 118.265 93.061 118.174C92.5044 118.115 91.8966 118.224 91.3466 118.564C90.847 118.873 90.553 119.275 90.3904 119.55C90.097 120.047 89.9681 120.59 89.8995 120.905L94.7854 121.967C94.8433 121.701 94.8416 121.846 94.695 122.094C94.6057 122.245 94.3899 122.561 93.9757 122.817C93.511 123.104 92.9957 123.194 92.5411 123.146C92.1483 123.105 91.8804 122.971 91.7868 122.921C91.6832 122.866 91.6323 122.824 91.6567 122.842C91.7274 122.896 91.8138 122.973 92.0815 123.204L95.3466 119.417ZM89.8995 120.905C89.6372 122.112 89.0414 123.323 88.311 125.103C87.6706 126.664 86.9077 128.727 87.0904 130.876L92.0724 130.452C92.0019 129.623 92.2954 128.564 92.9366 127.002C93.4879 125.658 94.3992 123.744 94.7854 121.967L89.8995 120.905ZM196.107 128.957H146.314V133.957H196.107V128.957Z" fill="#3EC320"/>
</svg>
