<svg width="205" height="194" viewBox="0 0 205 194" fill="none" xmlns="http://www.w3.org/2000/svg">
<path d="M81.0078 59.1886C83.1664 71.988 83.0552 84.9307 82.7295 97.8061C82.722 98.1038 82.2547 102.214 83.1305 100.137M88 59.1896C90.0338 68.1571 89.9291 77.225 89.6222 86.2457C89.6151 86.4543 89.1749 89.334 90 87.8788M120.278 103.38C119.348 103.874 119.053 104.449 118.57 102.964C117.803 100.611 117.819 98.0126 117.787 95.6105C117.632 84.0216 118.624 72.4283 117.716 60.8452C117.203 60.8452 94.4456 59.7408 83.1309 59.1886M14 86.281C14 66.6573 19.4656 49.9999 31.2878 34.9834C43.0074 20.0972 65.0307 8.96023 82.7797 5.43857C107.249 0.583594 129.717 2.70997 152.572 14.2407C168.17 22.11 183.169 41.7136 186.5 60.6947M58.7207 103.383C71.0483 111.526 86.18 132.765 97.8789 141.729C101.264 144.323 105.175 136.549 106.898 134.399C116.925 121.889 127.56 110.883 141.504 102.851M120.277 103.916C128.07 103.916 135.958 101.786 143.627 101.786M59.782 103.915L84.1927 105.512M193.142 121.518C193.142 138.024 165.67 164.968 153.675 173.162C126.974 191.403 82.4115 199.294 53.9825 179.108C40.9519 169.855 28.6582 157.702 22.4865 142.42M3 140.941C4.23359 131.542 8.11397 121.74 10.4691 112.487C12.2949 105.314 13.8727 107.677 18.2665 111.862C25.2998 118.56 31.7567 125.305 39.7709 130.935C41.7999 132.361 45.4817 134.371 42.8899 136.017M6.13672 142.515C17.7437 140.561 28.9859 136.241 40.6443 134.646M168.342 69.4706C179.723 66.6308 187.643 63.4401 198.84 59.963C200.511 59.4441 202.465 58.3713 201.902 61.0345C199.704 71.4326 198.159 81.8142 193.764 91.4487C193.185 92.7186 192.636 93.7261 192.636 95.1165C192.636 99.2237 178.615 81.9685 171.607 74.7992" stroke="#fff" stroke-width="5" stroke-linecap="round"/>
</svg>
