<svg width="626" height="20" viewBox="0 0 626 20" fill="none" xmlns="http://www.w3.org/2000/svg">
<path d="M623.723 16.9308C562.203 18.382 497.833 17.2009 435.85 16.4703C353.684 15.5019 271.623 14.6609 189.467 13.9894C166.208 13.7993 193.535 14.0478 199.305 14.0858C273.165 14.5722 347.064 12.859 419.825 10.9509C457.149 9.97208 494.419 8.83742 531.33 7.36414C545.617 6.79388 560.373 6.22022 574.158 5.20311C577.629 4.94708 579.843 4.6974 574.669 4.5257C550.682 3.72969 525.521 3.95608 501.565 3.86716C408.348 3.52117 315.144 3.11833 221.915 2.68071C148.103 2.33423 75.2543 2.58094 2.06243 3.95251" stroke="white" stroke-width="4" stroke-linecap="round"/>
</svg>
